HIERARCHY
ROOT RootJoint
{
    OFFSET   0.000000   0.000000   0.000000
    CHANNELS 6 Xposition Yposition Zposition Xrotation Yrotation Zrotation
    JOINT pelvis_lowerback
    {
        OFFSET   0.000000   0.093605   0.000000
        CHANNELS 3 Xrotation Yrotation Zrotation
        JOINT lowerback_torso
        {
            OFFSET   0.000000   0.100000   0.000000
            CHANNELS 3 Xrotation Yrotation Zrotation
            JOINT torso_head
            {
                OFFSET   0.000000   0.282350   0.000000
                CHANNELS 3 Xrotation Yrotation Zrotation
                End Site
                {
                    OFFSET   0.000000   0.192650   0.000000
                }
            }
            JOINT rTorso_Clavicle
            {
                OFFSET  -0.001000   0.157500   0.000000
                CHANNELS 3 Xrotation Yrotation Zrotation
                JOINT rShoulder
                {
                    OFFSET  -0.117647   0.000000   0.000000
                    CHANNELS 3 Xrotation Yrotation Zrotation
                    JOINT rElbow
                    {
                        OFFSET  -0.245000   0.000000   0.000000
                        CHANNELS 3 Xrotation Yrotation Zrotation
                        JOINT rWrist
                        {
                            OFFSET  -0.240000   0.000000   0.000000
                            CHANNELS 3 Xrotation Yrotation Zrotation
                            End Site
                            {
                                OFFSET  -0.116353  -0.002500   0.000000
                            }
                        }
                    }
                }
            }
            JOINT lTorso_Clavicle
            {
                OFFSET   0.001000   0.157500   0.000000
                CHANNELS 3 Xrotation Yrotation Zrotation
                JOINT lShoulder
                {
                    OFFSET   0.117647   0.000000   0.000000
                    CHANNELS 3 Xrotation Yrotation Zrotation
                    JOINT lElbow
                    {
                        OFFSET   0.245000   0.000000   0.000000
                        CHANNELS 3 Xrotation Yrotation Zrotation
                        JOINT lWrist
                        {
                            OFFSET   0.240000   0.000000   0.000000
                            CHANNELS 3 Xrotation Yrotation Zrotation
                            End Site
                            {
                                OFFSET   0.116353  -0.002500   0.000000
                            }
                        }
                    }
                }
            }
        }
    }
    JOINT rHip
    {
        OFFSET  -0.100000  -0.051395   0.000000
        CHANNELS 3 Xrotation Yrotation Zrotation
        JOINT rKnee
        {
            OFFSET   0.000000  -0.410000   0.000000
            CHANNELS 3 Xrotation Yrotation Zrotation
            JOINT rAnkle
            {
                OFFSET   0.000000  -0.390000   0.000000
                CHANNELS 3 Xrotation Yrotation Zrotation
                JOINT rToeJoint
                {
                    OFFSET   0.000000  -0.050000   0.130000
                    CHANNELS 3 Xrotation Yrotation Zrotation
                    End Site
                    {
                        OFFSET  -0.010000   0.002000   0.060000
                    }
                }
            }
        }
    }
    JOINT lHip
    {
        OFFSET   0.100000  -0.051395   0.000000
        CHANNELS 3 Xrotation Yrotation Zrotation
        JOINT lKnee
        {
            OFFSET   0.000000  -0.410000   0.000000
            CHANNELS 3 Xrotation Yrotation Zrotation
            JOINT lAnkle
            {
                OFFSET   0.000000  -0.390000   0.000000
                CHANNELS 3 Xrotation Yrotation Zrotation
                JOINT lToeJoint
                {
                    OFFSET   0.000000  -0.050000   0.130000
                    CHANNELS 3 Xrotation Yrotation Zrotation
                    End Site
                    {
                        OFFSET   0.010000   0.002000   0.060000
                    }
                }
            }
        }
    }
}
MOTION
Frames: 5
Frame Time:   0.008333
 -2.239281   0.879803   3.802318  -4.380717  -7.454665   1.244361   7.146558  -0.419328  -0.723659  -8.704685  -1.780493  -0.601410   2.973346  -1.782790  -1.065118 -13.718448  -0.769666 -36.230115 -45.544756  12.389692 -16.674926  -0.070046  41.101446   0.046959   1.273568   5.433246 -24.300024 -12.123102  -1.485347  34.373241 -43.879808 -15.875106  14.482768  -0.067380 -41.569371  -0.059665   2.696224  -8.271404  29.952989 -11.886049   1.958185 -16.938938  44.591278   0.000673  -0.002226  -8.093361  -3.454106   5.703605 -16.648931  -0.018094   0.016009  -9.281632  -2.752477  13.430374  46.330586  -0.006645  -0.018978  -9.438905   1.995304  -2.145343  -5.779384  -0.002868  -0.001303
 -2.238727   0.869093   3.802202  -4.616392  -7.716020   1.000581   7.582546  -0.324048  -0.453557  -8.994343  -1.796037  -0.562578   2.953354  -1.717460  -0.939491 -14.078606  -0.347150 -36.007786 -45.458995  12.834186 -16.763484  -0.063246  42.579910   0.045970   1.350948   5.327044 -24.374623 -12.352017  -1.873658  34.156972 -44.106566 -16.198946  14.676874  -0.063839 -42.581157  -0.060243   2.732695  -8.292943  29.934279 -12.167372   1.943759 -16.888252  46.100716  -0.000778  -0.007271 -10.389482  -3.525880   5.511150 -21.377153  -0.024385   0.024878  -9.443200  -2.756080  13.262886  47.804200  -0.003411  -0.019843 -10.879435   2.290804  -1.627046  -5.594852  -0.002701  -0.001155
 -2.238471   0.858887   3.801925  -4.882926  -8.003810   0.896025   8.033175  -0.232547  -0.362229  -9.233043  -1.804581  -0.573597   2.930557  -1.641216  -0.817457 -14.411283   0.039479 -35.797516 -45.377274  13.271859 -16.816357  -0.057326  43.990810   0.044349   1.469420   5.346019 -24.386322 -12.572373  -2.231113  33.959402 -44.321320 -16.524699  14.855052  -0.059734 -43.547458  -0.059525   2.812833  -8.409674  29.918556 -12.432139   1.945369 -16.966385  47.528184  -0.002553  -0.011263 -12.560669  -3.633909   5.319255 -26.016593  -0.031218   0.033759  -9.561235  -2.759848  13.326393  49.656921  -0.005104  -0.018013 -12.801383   2.934976  -1.111179 -12.730103   0.037878  -0.024497
 -2.237704   0.850291   3.801557  -5.230861  -8.196839   0.672310   8.552189  -0.163536  -0.106953  -9.425597  -1.821275  -0.581066   2.913238  -1.575648  -0.686822 -14.724909   0.396232 -35.595121 -45.300774  13.691974 -16.870826  -0.051264  45.327945   0.042195   1.638233   5.486510 -24.429142 -12.772737  -2.560469  33.783912 -44.516699 -16.833134  15.016644  -0.055569 -44.455029  -0.057326   2.908131  -8.555963  29.924883 -12.860717   1.990170 -17.009040  49.435581  -0.003291  -0.015965 -15.297261  -3.724267   5.362942 -23.742710  -0.022182   0.020841  -9.606605  -2.812318  13.498082  51.250587  -0.005616  -0.015384 -14.505714   3.346209  -0.658120 -18.097121   0.057703  -0.024173
 -2.236640   0.842776   3.801268  -5.599579  -8.280300   0.473478   9.039032  -0.119061   0.117024  -9.561120  -1.857571  -0.568219   2.896277  -1.521655  -0.565965 -15.018855   0.721760 -35.408895 -45.227699  14.082137 -16.918997  -0.045839  46.577947   0.040264   1.811504   5.646562 -24.442876 -12.956719  -2.870150  33.622738 -44.701414 -17.127598  15.158080  -0.051434 -45.308043  -0.054118   3.012522  -8.720885  29.898487 -13.198162   2.028805 -17.083375  51.148704  -0.003024  -0.017664 -17.434655  -3.764826   5.306200 -21.695931  -0.013873   0.013798  -9.663968  -2.870186  13.624312  52.698233  -0.004857  -0.012334 -16.035451   3.678159  -0.230950 -22.192431   0.064678  -0.021351
